<mxfile host="app.diagrams.net" modified="2024-04-03T15:28:15.935Z" agent="Mozilla/5.0 (X11; Linux x86_64) AppleWebKit/537.36 (KHTML, like Gecko) Chrome/123.0.0.0 Safari/537.36" etag="RdkLd_6QNmMSA5cr1hsk" version="24.2.1" type="google">
  <diagram name="Page-1" id="F6ROneN29MLaOiMp2rLe">
    <mxGraphModel grid="1" page="0" gridSize="10" guides="1" tooltips="1" connect="1" arrows="1" fold="1" pageScale="1" pageWidth="850" pageHeight="1100" math="0" shadow="0">
      <root>
        <mxCell id="0" />
        <mxCell id="1" parent="0" />
        <mxCell id="13BXsFd0YHhBjIUxRNbK-51" style="edgeStyle=orthogonalEdgeStyle;rounded=0;orthogonalLoop=1;jettySize=auto;html=1;exitX=0.5;exitY=1;exitDx=0;exitDy=0;entryX=0.5;entryY=0;entryDx=0;entryDy=0;fillColor=#e1d5e7;strokeColor=#9673a6;" edge="1" parent="1" source="ZmlC0FR1jS6TGAW2oJym-13" target="13BXsFd0YHhBjIUxRNbK-50">
          <mxGeometry relative="1" as="geometry" />
        </mxCell>
        <mxCell id="ZmlC0FR1jS6TGAW2oJym-13" value="&lt;font style=&quot;font-size: 24px;&quot;&gt;Timestep&lt;/font&gt;" style="rounded=0;whiteSpace=wrap;html=1;fillColor=#e1d5e7;strokeColor=#9673a6;" vertex="1" parent="1">
          <mxGeometry x="-220" y="-480" width="120" height="60" as="geometry" />
        </mxCell>
        <mxCell id="13BXsFd0YHhBjIUxRNbK-11" style="edgeStyle=orthogonalEdgeStyle;rounded=0;orthogonalLoop=1;jettySize=auto;html=1;exitX=0.5;exitY=1;exitDx=0;exitDy=0;entryX=0.5;entryY=0;entryDx=0;entryDy=0;" edge="1" parent="1" source="13BXsFd0YHhBjIUxRNbK-4" target="13BXsFd0YHhBjIUxRNbK-5">
          <mxGeometry relative="1" as="geometry" />
        </mxCell>
        <mxCell id="13BXsFd0YHhBjIUxRNbK-4" value="&lt;div&gt;&lt;font style=&quot;font-size: 12px;&quot;&gt;Latent Input&lt;/font&gt;&lt;/div&gt;&lt;font face=&quot;Times New Roman&quot; style=&quot;&quot;&gt;&lt;span style=&quot;font-size: 24px;&quot;&gt;&lt;i&gt;x&lt;/i&gt;&lt;/span&gt;&lt;span style=&quot;font-style: italic; font-size: 20px;&quot;&gt;&lt;sub&gt;t&lt;/sub&gt;&lt;/span&gt;&lt;/font&gt;" style="rounded=0;whiteSpace=wrap;html=1;" vertex="1" parent="1">
          <mxGeometry x="-80" y="-480" width="120" height="60" as="geometry" />
        </mxCell>
        <mxCell id="13BXsFd0YHhBjIUxRNbK-8" style="edgeStyle=orthogonalEdgeStyle;rounded=0;orthogonalLoop=1;jettySize=auto;html=1;exitX=0.75;exitY=1;exitDx=0;exitDy=0;entryX=0.25;entryY=0;entryDx=0;entryDy=0;fontStyle=1" edge="1" parent="1" source="13BXsFd0YHhBjIUxRNbK-5" target="13BXsFd0YHhBjIUxRNbK-7">
          <mxGeometry relative="1" as="geometry" />
        </mxCell>
        <mxCell id="13BXsFd0YHhBjIUxRNbK-44" style="edgeStyle=orthogonalEdgeStyle;rounded=0;orthogonalLoop=1;jettySize=auto;html=1;exitX=1;exitY=0.5;exitDx=0;exitDy=0;entryX=0;entryY=0.5;entryDx=0;entryDy=0;fillColor=#f5f5f5;strokeColor=#666666;dashed=1;" edge="1" parent="1" source="13BXsFd0YHhBjIUxRNbK-5" target="13BXsFd0YHhBjIUxRNbK-41">
          <mxGeometry relative="1" as="geometry" />
        </mxCell>
        <mxCell id="13BXsFd0YHhBjIUxRNbK-5" value="&lt;font style=&quot;font-size: 20px;&quot;&gt;Down Block&lt;/font&gt;" style="rounded=0;whiteSpace=wrap;html=1;fillColor=#dae8fc;strokeColor=#6c8ebf;" vertex="1" parent="1">
          <mxGeometry x="-80" y="-400" width="120" height="40" as="geometry" />
        </mxCell>
        <mxCell id="13BXsFd0YHhBjIUxRNbK-10" style="edgeStyle=orthogonalEdgeStyle;rounded=0;orthogonalLoop=1;jettySize=auto;html=1;exitX=0.75;exitY=1;exitDx=0;exitDy=0;entryX=0.25;entryY=0;entryDx=0;entryDy=0;" edge="1" parent="1" source="13BXsFd0YHhBjIUxRNbK-7" target="13BXsFd0YHhBjIUxRNbK-9">
          <mxGeometry relative="1" as="geometry" />
        </mxCell>
        <mxCell id="13BXsFd0YHhBjIUxRNbK-45" style="edgeStyle=orthogonalEdgeStyle;rounded=0;orthogonalLoop=1;jettySize=auto;html=1;exitX=1;exitY=0.5;exitDx=0;exitDy=0;entryX=0;entryY=0.5;entryDx=0;entryDy=0;fillColor=#f5f5f5;strokeColor=#666666;dashed=1;" edge="1" parent="1" source="13BXsFd0YHhBjIUxRNbK-7" target="13BXsFd0YHhBjIUxRNbK-39">
          <mxGeometry relative="1" as="geometry" />
        </mxCell>
        <mxCell id="13BXsFd0YHhBjIUxRNbK-7" value="&lt;font style=&quot;font-size: 20px;&quot;&gt;Down Block&lt;/font&gt;" style="rounded=0;whiteSpace=wrap;html=1;fillColor=#dae8fc;strokeColor=#6c8ebf;" vertex="1" parent="1">
          <mxGeometry x="-40" y="-340" width="120" height="40" as="geometry" />
        </mxCell>
        <mxCell id="13BXsFd0YHhBjIUxRNbK-14" style="edgeStyle=orthogonalEdgeStyle;rounded=0;orthogonalLoop=1;jettySize=auto;html=1;exitX=0.75;exitY=1;exitDx=0;exitDy=0;entryX=0.25;entryY=0;entryDx=0;entryDy=0;" edge="1" parent="1" source="13BXsFd0YHhBjIUxRNbK-9" target="13BXsFd0YHhBjIUxRNbK-13">
          <mxGeometry relative="1" as="geometry" />
        </mxCell>
        <mxCell id="13BXsFd0YHhBjIUxRNbK-46" style="edgeStyle=orthogonalEdgeStyle;rounded=0;orthogonalLoop=1;jettySize=auto;html=1;exitX=1;exitY=0.5;exitDx=0;exitDy=0;entryX=0;entryY=0.5;entryDx=0;entryDy=0;fillColor=#f5f5f5;strokeColor=#666666;dashed=1;" edge="1" parent="1" source="13BXsFd0YHhBjIUxRNbK-9" target="13BXsFd0YHhBjIUxRNbK-26">
          <mxGeometry relative="1" as="geometry" />
        </mxCell>
        <mxCell id="13BXsFd0YHhBjIUxRNbK-9" value="&lt;font style=&quot;font-size: 20px;&quot;&gt;Down Block&lt;/font&gt;" style="rounded=0;whiteSpace=wrap;html=1;fillColor=#dae8fc;strokeColor=#6c8ebf;" vertex="1" parent="1">
          <mxGeometry y="-280" width="120" height="40" as="geometry" />
        </mxCell>
        <mxCell id="13BXsFd0YHhBjIUxRNbK-18" style="edgeStyle=orthogonalEdgeStyle;rounded=0;orthogonalLoop=1;jettySize=auto;html=1;exitX=0.75;exitY=1;exitDx=0;exitDy=0;entryX=0.25;entryY=0;entryDx=0;entryDy=0;" edge="1" parent="1" source="13BXsFd0YHhBjIUxRNbK-13" target="13BXsFd0YHhBjIUxRNbK-17">
          <mxGeometry relative="1" as="geometry" />
        </mxCell>
        <mxCell id="13BXsFd0YHhBjIUxRNbK-47" style="edgeStyle=orthogonalEdgeStyle;rounded=0;orthogonalLoop=1;jettySize=auto;html=1;exitX=1;exitY=0.5;exitDx=0;exitDy=0;entryX=0;entryY=0.5;entryDx=0;entryDy=0;fillColor=#f5f5f5;strokeColor=#666666;dashed=1;" edge="1" parent="1" source="13BXsFd0YHhBjIUxRNbK-13" target="13BXsFd0YHhBjIUxRNbK-23">
          <mxGeometry relative="1" as="geometry" />
        </mxCell>
        <mxCell id="13BXsFd0YHhBjIUxRNbK-13" value="&lt;font style=&quot;font-size: 20px;&quot;&gt;Down Block&lt;/font&gt;" style="rounded=0;whiteSpace=wrap;html=1;fillColor=#dae8fc;strokeColor=#6c8ebf;" vertex="1" parent="1">
          <mxGeometry x="40" y="-220" width="120" height="40" as="geometry" />
        </mxCell>
        <mxCell id="13BXsFd0YHhBjIUxRNbK-30" style="edgeStyle=orthogonalEdgeStyle;rounded=0;orthogonalLoop=1;jettySize=auto;html=1;exitX=0.75;exitY=1;exitDx=0;exitDy=0;entryX=0.25;entryY=0;entryDx=0;entryDy=0;" edge="1" parent="1" source="13BXsFd0YHhBjIUxRNbK-17" target="13BXsFd0YHhBjIUxRNbK-29">
          <mxGeometry relative="1" as="geometry" />
        </mxCell>
        <mxCell id="13BXsFd0YHhBjIUxRNbK-48" style="edgeStyle=orthogonalEdgeStyle;rounded=0;orthogonalLoop=1;jettySize=auto;html=1;exitX=1;exitY=0.5;exitDx=0;exitDy=0;entryX=0;entryY=0.5;entryDx=0;entryDy=0;fillColor=#f5f5f5;strokeColor=#666666;dashed=1;" edge="1" parent="1" source="13BXsFd0YHhBjIUxRNbK-17" target="13BXsFd0YHhBjIUxRNbK-20">
          <mxGeometry relative="1" as="geometry" />
        </mxCell>
        <mxCell id="13BXsFd0YHhBjIUxRNbK-17" value="&lt;font style=&quot;font-size: 17px;&quot;&gt;Cross Attention&lt;/font&gt;" style="rounded=0;whiteSpace=wrap;html=1;fillColor=#f8cecc;strokeColor=#b85450;" vertex="1" parent="1">
          <mxGeometry x="80" y="-160" width="120" height="40" as="geometry" />
        </mxCell>
        <mxCell id="13BXsFd0YHhBjIUxRNbK-27" style="edgeStyle=orthogonalEdgeStyle;rounded=0;orthogonalLoop=1;jettySize=auto;html=1;exitX=0.75;exitY=0;exitDx=0;exitDy=0;entryX=0.25;entryY=1;entryDx=0;entryDy=0;" edge="1" parent="1" source="13BXsFd0YHhBjIUxRNbK-20" target="13BXsFd0YHhBjIUxRNbK-23">
          <mxGeometry relative="1" as="geometry" />
        </mxCell>
        <mxCell id="13BXsFd0YHhBjIUxRNbK-20" value="&lt;font style=&quot;font-size: 17px;&quot;&gt;Cross Attention&lt;/font&gt;" style="rounded=0;whiteSpace=wrap;html=1;fillColor=#f8cecc;strokeColor=#b85450;" vertex="1" parent="1">
          <mxGeometry x="440" y="-160" width="120" height="40" as="geometry" />
        </mxCell>
        <mxCell id="13BXsFd0YHhBjIUxRNbK-28" style="edgeStyle=orthogonalEdgeStyle;rounded=0;orthogonalLoop=1;jettySize=auto;html=1;exitX=0.75;exitY=0;exitDx=0;exitDy=0;entryX=0.25;entryY=1;entryDx=0;entryDy=0;" edge="1" parent="1" source="13BXsFd0YHhBjIUxRNbK-23" target="13BXsFd0YHhBjIUxRNbK-26">
          <mxGeometry relative="1" as="geometry" />
        </mxCell>
        <mxCell id="13BXsFd0YHhBjIUxRNbK-23" value="&lt;font style=&quot;font-size: 20px;&quot;&gt;Up Block&lt;/font&gt;" style="rounded=0;whiteSpace=wrap;html=1;fillColor=#dae8fc;strokeColor=#6c8ebf;" vertex="1" parent="1">
          <mxGeometry x="480" y="-220" width="120" height="40" as="geometry" />
        </mxCell>
        <mxCell id="13BXsFd0YHhBjIUxRNbK-40" style="edgeStyle=orthogonalEdgeStyle;rounded=0;orthogonalLoop=1;jettySize=auto;html=1;exitX=0.75;exitY=0;exitDx=0;exitDy=0;entryX=0.25;entryY=1;entryDx=0;entryDy=0;" edge="1" parent="1" source="13BXsFd0YHhBjIUxRNbK-26" target="13BXsFd0YHhBjIUxRNbK-39">
          <mxGeometry relative="1" as="geometry" />
        </mxCell>
        <mxCell id="13BXsFd0YHhBjIUxRNbK-26" value="&lt;font style=&quot;font-size: 20px;&quot;&gt;Up Block&lt;/font&gt;" style="rounded=0;whiteSpace=wrap;html=1;fillColor=#dae8fc;strokeColor=#6c8ebf;" vertex="1" parent="1">
          <mxGeometry x="520" y="-280" width="120" height="40" as="geometry" />
        </mxCell>
        <mxCell id="13BXsFd0YHhBjIUxRNbK-33" style="edgeStyle=orthogonalEdgeStyle;rounded=0;orthogonalLoop=1;jettySize=auto;html=1;exitX=1;exitY=0.5;exitDx=0;exitDy=0;entryX=0;entryY=0.5;entryDx=0;entryDy=0;" edge="1" parent="1" source="13BXsFd0YHhBjIUxRNbK-29" target="13BXsFd0YHhBjIUxRNbK-32">
          <mxGeometry relative="1" as="geometry" />
        </mxCell>
        <mxCell id="13BXsFd0YHhBjIUxRNbK-29" value="&lt;font style=&quot;font-size: 20px;&quot;&gt;Down Block&lt;/font&gt;" style="rounded=0;whiteSpace=wrap;html=1;fillColor=#dae8fc;strokeColor=#6c8ebf;" vertex="1" parent="1">
          <mxGeometry x="120" y="-100" width="120" height="40" as="geometry" />
        </mxCell>
        <mxCell id="13BXsFd0YHhBjIUxRNbK-36" style="edgeStyle=orthogonalEdgeStyle;rounded=0;orthogonalLoop=1;jettySize=auto;html=1;exitX=1;exitY=0.5;exitDx=0;exitDy=0;entryX=0;entryY=0.5;entryDx=0;entryDy=0;" edge="1" parent="1" source="13BXsFd0YHhBjIUxRNbK-32" target="13BXsFd0YHhBjIUxRNbK-35">
          <mxGeometry relative="1" as="geometry" />
        </mxCell>
        <mxCell id="13BXsFd0YHhBjIUxRNbK-32" value="&lt;font style=&quot;font-size: 20px;&quot;&gt;Middle Block&lt;/font&gt;" style="rounded=0;whiteSpace=wrap;html=1;fillColor=#fff2cc;strokeColor=#d6b656;" vertex="1" parent="1">
          <mxGeometry x="260" y="-100" width="120" height="40" as="geometry" />
        </mxCell>
        <mxCell id="13BXsFd0YHhBjIUxRNbK-37" style="edgeStyle=orthogonalEdgeStyle;rounded=0;orthogonalLoop=1;jettySize=auto;html=1;exitX=0.75;exitY=0;exitDx=0;exitDy=0;entryX=0.25;entryY=1;entryDx=0;entryDy=0;" edge="1" parent="1" source="13BXsFd0YHhBjIUxRNbK-35" target="13BXsFd0YHhBjIUxRNbK-20">
          <mxGeometry relative="1" as="geometry" />
        </mxCell>
        <mxCell id="13BXsFd0YHhBjIUxRNbK-35" value="&lt;font style=&quot;font-size: 20px;&quot;&gt;Up Block&lt;/font&gt;" style="rounded=0;whiteSpace=wrap;html=1;fillColor=#dae8fc;strokeColor=#6c8ebf;" vertex="1" parent="1">
          <mxGeometry x="400" y="-100" width="120" height="40" as="geometry" />
        </mxCell>
        <mxCell id="13BXsFd0YHhBjIUxRNbK-42" style="edgeStyle=orthogonalEdgeStyle;rounded=0;orthogonalLoop=1;jettySize=auto;html=1;exitX=0.75;exitY=0;exitDx=0;exitDy=0;entryX=0.25;entryY=1;entryDx=0;entryDy=0;" edge="1" parent="1" source="13BXsFd0YHhBjIUxRNbK-39" target="13BXsFd0YHhBjIUxRNbK-41">
          <mxGeometry relative="1" as="geometry" />
        </mxCell>
        <mxCell id="13BXsFd0YHhBjIUxRNbK-39" value="&lt;font style=&quot;font-size: 20px;&quot;&gt;Up Block&lt;/font&gt;" style="rounded=0;whiteSpace=wrap;html=1;fillColor=#dae8fc;strokeColor=#6c8ebf;" vertex="1" parent="1">
          <mxGeometry x="560" y="-340" width="120" height="40" as="geometry" />
        </mxCell>
        <mxCell id="13BXsFd0YHhBjIUxRNbK-82" style="edgeStyle=orthogonalEdgeStyle;rounded=0;orthogonalLoop=1;jettySize=auto;html=1;exitX=0.5;exitY=0;exitDx=0;exitDy=0;entryX=0.5;entryY=1;entryDx=0;entryDy=0;" edge="1" parent="1" source="13BXsFd0YHhBjIUxRNbK-41" target="13BXsFd0YHhBjIUxRNbK-43">
          <mxGeometry relative="1" as="geometry" />
        </mxCell>
        <mxCell id="13BXsFd0YHhBjIUxRNbK-41" value="&lt;font style=&quot;font-size: 20px;&quot;&gt;Up Block&lt;/font&gt;" style="rounded=0;whiteSpace=wrap;html=1;fillColor=#dae8fc;strokeColor=#6c8ebf;" vertex="1" parent="1">
          <mxGeometry x="600" y="-400" width="120" height="40" as="geometry" />
        </mxCell>
        <mxCell id="13BXsFd0YHhBjIUxRNbK-43" value="&lt;div&gt;&lt;font style=&quot;font-size: 12px;&quot;&gt;Latent Output&lt;/font&gt;&lt;/div&gt;&lt;font face=&quot;Times New Roman&quot; style=&quot;&quot;&gt;&lt;span style=&quot;font-size: 24px;&quot;&gt;&lt;i&gt;x&lt;/i&gt;&lt;/span&gt;&lt;span style=&quot;font-style: italic; font-size: 20px;&quot;&gt;&lt;sub&gt;t-1&lt;/sub&gt;&lt;/span&gt;&lt;/font&gt;" style="rounded=0;whiteSpace=wrap;html=1;" vertex="1" parent="1">
          <mxGeometry x="600" y="-490" width="120" height="60" as="geometry" />
        </mxCell>
        <mxCell id="13BXsFd0YHhBjIUxRNbK-60" style="edgeStyle=orthogonalEdgeStyle;rounded=0;orthogonalLoop=1;jettySize=auto;html=1;exitX=0.5;exitY=1;exitDx=0;exitDy=0;entryX=0.5;entryY=1;entryDx=0;entryDy=0;fillColor=#e1d5e7;strokeColor=#9673a6;" edge="1" parent="1" source="13BXsFd0YHhBjIUxRNbK-50" target="13BXsFd0YHhBjIUxRNbK-29">
          <mxGeometry relative="1" as="geometry" />
        </mxCell>
        <mxCell id="13BXsFd0YHhBjIUxRNbK-62" style="edgeStyle=orthogonalEdgeStyle;rounded=0;orthogonalLoop=1;jettySize=auto;html=1;exitX=0.5;exitY=1;exitDx=0;exitDy=0;entryX=0.5;entryY=1;entryDx=0;entryDy=0;fillColor=#e1d5e7;strokeColor=#9673a6;" edge="1" parent="1" source="13BXsFd0YHhBjIUxRNbK-50" target="13BXsFd0YHhBjIUxRNbK-32">
          <mxGeometry relative="1" as="geometry" />
        </mxCell>
        <mxCell id="13BXsFd0YHhBjIUxRNbK-50" value="&lt;font style=&quot;font-size: 21px;&quot;&gt;Sinusoidal&lt;/font&gt;&lt;div style=&quot;font-size: 21px; line-height: 90%;&quot;&gt;&lt;font style=&quot;font-size: 21px;&quot;&gt;Positional&lt;/font&gt;&lt;/div&gt;&lt;div style=&quot;font-size: 21px; line-height: 90%;&quot;&gt;&lt;font style=&quot;font-size: 21px;&quot;&gt;Encoding&lt;/font&gt;&lt;/div&gt;" style="rounded=0;whiteSpace=wrap;html=1;fillColor=#e1d5e7;strokeColor=#9673a6;" vertex="1" parent="1">
          <mxGeometry x="-220" y="-340" width="120" height="70" as="geometry" />
        </mxCell>
        <mxCell id="13BXsFd0YHhBjIUxRNbK-56" style="edgeStyle=orthogonalEdgeStyle;rounded=0;orthogonalLoop=1;jettySize=auto;html=1;exitX=0.5;exitY=1;exitDx=0;exitDy=0;entryX=0.173;entryY=1.013;entryDx=0;entryDy=0;entryPerimeter=0;fillColor=#e1d5e7;strokeColor=#9673a6;" edge="1" parent="1" source="13BXsFd0YHhBjIUxRNbK-50" target="13BXsFd0YHhBjIUxRNbK-7">
          <mxGeometry relative="1" as="geometry">
            <Array as="points">
              <mxPoint x="-160" y="-40" />
              <mxPoint x="-19" y="-40" />
            </Array>
          </mxGeometry>
        </mxCell>
        <mxCell id="13BXsFd0YHhBjIUxRNbK-57" style="edgeStyle=orthogonalEdgeStyle;rounded=0;orthogonalLoop=1;jettySize=auto;html=1;exitX=0.5;exitY=1;exitDx=0;exitDy=0;entryX=0.159;entryY=1.007;entryDx=0;entryDy=0;entryPerimeter=0;fillColor=#e1d5e7;strokeColor=#9673a6;" edge="1" parent="1" source="13BXsFd0YHhBjIUxRNbK-50" target="13BXsFd0YHhBjIUxRNbK-5">
          <mxGeometry relative="1" as="geometry">
            <Array as="points">
              <mxPoint x="-160" y="-40" />
              <mxPoint x="-61" y="-40" />
            </Array>
          </mxGeometry>
        </mxCell>
        <mxCell id="13BXsFd0YHhBjIUxRNbK-58" style="edgeStyle=orthogonalEdgeStyle;rounded=0;orthogonalLoop=1;jettySize=auto;html=1;exitX=0.5;exitY=1;exitDx=0;exitDy=0;entryX=0.168;entryY=0.98;entryDx=0;entryDy=0;entryPerimeter=0;fillColor=#e1d5e7;strokeColor=#9673a6;" edge="1" parent="1" source="13BXsFd0YHhBjIUxRNbK-50" target="13BXsFd0YHhBjIUxRNbK-9">
          <mxGeometry relative="1" as="geometry">
            <Array as="points">
              <mxPoint x="-160" y="-40" />
              <mxPoint x="20" y="-40" />
            </Array>
          </mxGeometry>
        </mxCell>
        <mxCell id="13BXsFd0YHhBjIUxRNbK-59" style="edgeStyle=orthogonalEdgeStyle;rounded=0;orthogonalLoop=1;jettySize=auto;html=1;exitX=0.5;exitY=1;exitDx=0;exitDy=0;entryX=0.159;entryY=1.053;entryDx=0;entryDy=0;entryPerimeter=0;fillColor=#e1d5e7;strokeColor=#9673a6;" edge="1" parent="1" source="13BXsFd0YHhBjIUxRNbK-50" target="13BXsFd0YHhBjIUxRNbK-13">
          <mxGeometry relative="1" as="geometry">
            <Array as="points">
              <mxPoint x="-160" y="-40" />
              <mxPoint x="59" y="-40" />
            </Array>
          </mxGeometry>
        </mxCell>
        <mxCell id="13BXsFd0YHhBjIUxRNbK-61" style="edgeStyle=orthogonalEdgeStyle;rounded=0;orthogonalLoop=1;jettySize=auto;html=1;exitX=0.5;exitY=1;exitDx=0;exitDy=0;entryX=0.164;entryY=1.03;entryDx=0;entryDy=0;entryPerimeter=0;fillColor=#e1d5e7;strokeColor=#9673a6;" edge="1" parent="1" source="13BXsFd0YHhBjIUxRNbK-50" target="13BXsFd0YHhBjIUxRNbK-17">
          <mxGeometry relative="1" as="geometry">
            <Array as="points">
              <mxPoint x="-160" y="-40" />
              <mxPoint x="100" y="-40" />
            </Array>
          </mxGeometry>
        </mxCell>
        <mxCell id="13BXsFd0YHhBjIUxRNbK-63" style="edgeStyle=orthogonalEdgeStyle;rounded=0;orthogonalLoop=1;jettySize=auto;html=1;exitX=0.5;exitY=1;exitDx=0;exitDy=0;entryX=0.467;entryY=1.075;entryDx=0;entryDy=0;entryPerimeter=0;fillColor=#e1d5e7;strokeColor=#9673a6;" edge="1" parent="1" source="13BXsFd0YHhBjIUxRNbK-50" target="13BXsFd0YHhBjIUxRNbK-35">
          <mxGeometry relative="1" as="geometry">
            <Array as="points">
              <mxPoint x="-160" y="-40" />
              <mxPoint x="456" y="-40" />
            </Array>
          </mxGeometry>
        </mxCell>
        <mxCell id="13BXsFd0YHhBjIUxRNbK-64" style="edgeStyle=orthogonalEdgeStyle;rounded=0;orthogonalLoop=1;jettySize=auto;html=1;exitX=0.5;exitY=1;exitDx=0;exitDy=0;entryX=0.833;entryY=1.075;entryDx=0;entryDy=0;entryPerimeter=0;fillColor=#e1d5e7;strokeColor=#9673a6;" edge="1" parent="1" source="13BXsFd0YHhBjIUxRNbK-50" target="13BXsFd0YHhBjIUxRNbK-20">
          <mxGeometry relative="1" as="geometry">
            <Array as="points">
              <mxPoint x="-160" y="-40" />
              <mxPoint x="540" y="-40" />
            </Array>
          </mxGeometry>
        </mxCell>
        <mxCell id="13BXsFd0YHhBjIUxRNbK-65" style="edgeStyle=orthogonalEdgeStyle;rounded=0;orthogonalLoop=1;jettySize=auto;html=1;exitX=0.5;exitY=1;exitDx=0;exitDy=0;entryX=0.85;entryY=1.108;entryDx=0;entryDy=0;entryPerimeter=0;fillColor=#e1d5e7;strokeColor=#9673a6;" edge="1" parent="1" source="13BXsFd0YHhBjIUxRNbK-50" target="13BXsFd0YHhBjIUxRNbK-23">
          <mxGeometry relative="1" as="geometry">
            <Array as="points">
              <mxPoint x="-160" y="-40" />
              <mxPoint x="582" y="-40" />
            </Array>
          </mxGeometry>
        </mxCell>
        <mxCell id="13BXsFd0YHhBjIUxRNbK-66" style="edgeStyle=orthogonalEdgeStyle;rounded=0;orthogonalLoop=1;jettySize=auto;html=1;exitX=0.5;exitY=1;exitDx=0;exitDy=0;entryX=0.85;entryY=1.058;entryDx=0;entryDy=0;entryPerimeter=0;fillColor=#e1d5e7;strokeColor=#9673a6;" edge="1" parent="1" source="13BXsFd0YHhBjIUxRNbK-50" target="13BXsFd0YHhBjIUxRNbK-26">
          <mxGeometry relative="1" as="geometry">
            <Array as="points">
              <mxPoint x="-160" y="-40" />
              <mxPoint x="622" y="-40" />
            </Array>
          </mxGeometry>
        </mxCell>
        <mxCell id="13BXsFd0YHhBjIUxRNbK-67" style="edgeStyle=orthogonalEdgeStyle;rounded=0;orthogonalLoop=1;jettySize=auto;html=1;exitX=0.5;exitY=1;exitDx=0;exitDy=0;entryX=0.839;entryY=1.025;entryDx=0;entryDy=0;entryPerimeter=0;fillColor=#e1d5e7;strokeColor=#9673a6;" edge="1" parent="1" source="13BXsFd0YHhBjIUxRNbK-50" target="13BXsFd0YHhBjIUxRNbK-39">
          <mxGeometry relative="1" as="geometry">
            <Array as="points">
              <mxPoint x="-160" y="-40" />
              <mxPoint x="661" y="-40" />
            </Array>
          </mxGeometry>
        </mxCell>
        <mxCell id="13BXsFd0YHhBjIUxRNbK-68" style="edgeStyle=orthogonalEdgeStyle;rounded=0;orthogonalLoop=1;jettySize=auto;html=1;exitX=0.5;exitY=1;exitDx=0;exitDy=0;entryX=0.839;entryY=1.008;entryDx=0;entryDy=0;entryPerimeter=0;fillColor=#e1d5e7;strokeColor=#9673a6;" edge="1" parent="1" source="13BXsFd0YHhBjIUxRNbK-50" target="13BXsFd0YHhBjIUxRNbK-41">
          <mxGeometry relative="1" as="geometry">
            <Array as="points">
              <mxPoint x="-160" y="-40" />
              <mxPoint x="701" y="-40" />
            </Array>
          </mxGeometry>
        </mxCell>
        <mxCell id="13BXsFd0YHhBjIUxRNbK-85" style="edgeStyle=orthogonalEdgeStyle;rounded=0;orthogonalLoop=1;jettySize=auto;html=1;exitX=1;exitY=0.5;exitDx=0;exitDy=0;entryX=0;entryY=0.5;entryDx=0;entryDy=0;fillColor=#d5e8d4;strokeColor=#82b366;" edge="1" parent="1" source="13BXsFd0YHhBjIUxRNbK-83" target="13BXsFd0YHhBjIUxRNbK-84">
          <mxGeometry relative="1" as="geometry" />
        </mxCell>
        <mxCell id="13BXsFd0YHhBjIUxRNbK-83" value="&lt;font style=&quot;font-size: 19px;&quot;&gt;Processing&lt;/font&gt;&lt;div style=&quot;font-size: 19px;&quot;&gt;&lt;font style=&quot;font-size: 19px;&quot;&gt;Parameters&lt;/font&gt;&lt;/div&gt;" style="rounded=0;whiteSpace=wrap;html=1;fillColor=#d5e8d4;strokeColor=#82b366;" vertex="1" parent="1">
          <mxGeometry x="90" y="-480" width="120" height="60" as="geometry" />
        </mxCell>
        <mxCell id="13BXsFd0YHhBjIUxRNbK-84" value="&lt;div style=&quot;font-size: 17px;&quot;&gt;&lt;font style=&quot;font-size: 17px;&quot;&gt;Linear&lt;/font&gt;&lt;/div&gt;&lt;div style=&quot;font-size: 17px;&quot;&gt;&lt;font style=&quot;font-size: 17px;&quot;&gt;Transformation&lt;/font&gt;&lt;/div&gt;" style="rounded=0;whiteSpace=wrap;html=1;fillColor=#d5e8d4;strokeColor=#82b366;" vertex="1" parent="1">
          <mxGeometry x="260" y="-480" width="120" height="60" as="geometry" />
        </mxCell>
        <mxCell id="13BXsFd0YHhBjIUxRNbK-86" style="edgeStyle=orthogonalEdgeStyle;rounded=0;orthogonalLoop=1;jettySize=auto;html=1;exitX=0.5;exitY=1;exitDx=0;exitDy=0;entryX=0.162;entryY=-0.036;entryDx=0;entryDy=0;entryPerimeter=0;fillColor=#d5e8d4;strokeColor=#82b366;" edge="1" parent="1" source="13BXsFd0YHhBjIUxRNbK-84" target="13BXsFd0YHhBjIUxRNbK-20">
          <mxGeometry relative="1" as="geometry" />
        </mxCell>
        <mxCell id="13BXsFd0YHhBjIUxRNbK-87" style="edgeStyle=orthogonalEdgeStyle;rounded=0;orthogonalLoop=1;jettySize=auto;html=1;exitX=0.5;exitY=1;exitDx=0;exitDy=0;entryX=0.833;entryY=0;entryDx=0;entryDy=0;entryPerimeter=0;fillColor=#d5e8d4;strokeColor=#82b366;" edge="1" parent="1" source="13BXsFd0YHhBjIUxRNbK-84" target="13BXsFd0YHhBjIUxRNbK-17">
          <mxGeometry relative="1" as="geometry" />
        </mxCell>
        <mxCell id="13BXsFd0YHhBjIUxRNbK-89" value="&lt;font style=&quot;font-size: 18px;&quot;&gt;Cross Attention Block&lt;/font&gt;" style="swimlane;whiteSpace=wrap;html=1;fillColor=#f8cecc;strokeColor=#b85450;startSize=30;" vertex="1" parent="1">
          <mxGeometry x="740" y="-490" width="270" height="450" as="geometry" />
        </mxCell>
        <mxCell id="13BXsFd0YHhBjIUxRNbK-103" style="edgeStyle=orthogonalEdgeStyle;rounded=0;orthogonalLoop=1;jettySize=auto;html=1;exitX=0.5;exitY=1;exitDx=0;exitDy=0;entryX=0.5;entryY=0;entryDx=0;entryDy=0;fillColor=#f8cecc;strokeColor=#b85450;" edge="1" parent="13BXsFd0YHhBjIUxRNbK-89" source="13BXsFd0YHhBjIUxRNbK-90" target="13BXsFd0YHhBjIUxRNbK-93">
          <mxGeometry relative="1" as="geometry" />
        </mxCell>
        <mxCell id="13BXsFd0YHhBjIUxRNbK-115" style="edgeStyle=orthogonalEdgeStyle;rounded=0;orthogonalLoop=1;jettySize=auto;html=1;exitX=0;exitY=0.5;exitDx=0;exitDy=0;entryX=0;entryY=0.5;entryDx=0;entryDy=0;fillColor=#f8cecc;strokeColor=#b85450;" edge="1" parent="13BXsFd0YHhBjIUxRNbK-89" source="13BXsFd0YHhBjIUxRNbK-90" target="13BXsFd0YHhBjIUxRNbK-110">
          <mxGeometry relative="1" as="geometry">
            <Array as="points">
              <mxPoint x="10" y="60" />
              <mxPoint x="10" y="160" />
            </Array>
          </mxGeometry>
        </mxCell>
        <mxCell id="13BXsFd0YHhBjIUxRNbK-142" style="edgeStyle=orthogonalEdgeStyle;rounded=0;orthogonalLoop=1;jettySize=auto;html=1;exitX=0;exitY=0.5;exitDx=0;exitDy=0;entryX=0;entryY=0.5;entryDx=0;entryDy=0;fillColor=#f8cecc;strokeColor=#b85450;" edge="1" parent="13BXsFd0YHhBjIUxRNbK-89" source="13BXsFd0YHhBjIUxRNbK-90" target="13BXsFd0YHhBjIUxRNbK-136">
          <mxGeometry relative="1" as="geometry">
            <Array as="points">
              <mxPoint x="10" y="60" />
              <mxPoint x="10" y="300" />
            </Array>
          </mxGeometry>
        </mxCell>
        <mxCell id="13BXsFd0YHhBjIUxRNbK-90" value="&lt;font style=&quot;font-size: 19px;&quot;&gt;Input Tensor&lt;/font&gt;" style="rounded=0;whiteSpace=wrap;html=1;" vertex="1" parent="13BXsFd0YHhBjIUxRNbK-89">
          <mxGeometry x="25" y="40" width="120" height="40" as="geometry" />
        </mxCell>
        <mxCell id="13BXsFd0YHhBjIUxRNbK-104" style="edgeStyle=orthogonalEdgeStyle;rounded=0;orthogonalLoop=1;jettySize=auto;html=1;exitX=0.5;exitY=1;exitDx=0;exitDy=0;entryX=0.5;entryY=0;entryDx=0;entryDy=0;fillColor=#f8cecc;strokeColor=#b85450;" edge="1" parent="13BXsFd0YHhBjIUxRNbK-89" source="13BXsFd0YHhBjIUxRNbK-93" target="13BXsFd0YHhBjIUxRNbK-97">
          <mxGeometry relative="1" as="geometry" />
        </mxCell>
        <mxCell id="13BXsFd0YHhBjIUxRNbK-93" value="&lt;font style=&quot;font-size: 17px;&quot;&gt;2D Convolution&lt;/font&gt;" style="rounded=0;whiteSpace=wrap;html=1;fillColor=#dae8fc;strokeColor=#6c8ebf;" vertex="1" parent="13BXsFd0YHhBjIUxRNbK-89">
          <mxGeometry x="25" y="100" width="120" height="30" as="geometry" />
        </mxCell>
        <mxCell id="13BXsFd0YHhBjIUxRNbK-138" style="edgeStyle=orthogonalEdgeStyle;rounded=0;orthogonalLoop=1;jettySize=auto;html=1;exitX=0.5;exitY=1;exitDx=0;exitDy=0;entryX=0.5;entryY=0;entryDx=0;entryDy=0;fillColor=#f8cecc;strokeColor=#b85450;" edge="1" parent="13BXsFd0YHhBjIUxRNbK-89" source="13BXsFd0YHhBjIUxRNbK-94" target="13BXsFd0YHhBjIUxRNbK-132">
          <mxGeometry relative="1" as="geometry" />
        </mxCell>
        <mxCell id="13BXsFd0YHhBjIUxRNbK-94" value="&lt;font style=&quot;font-size: 19px;&quot;&gt;Transformer&lt;/font&gt;" style="rounded=0;whiteSpace=wrap;html=1;fillColor=#f8cecc;strokeColor=#b85450;" vertex="1" parent="13BXsFd0YHhBjIUxRNbK-89">
          <mxGeometry x="25" y="190" width="120" height="30" as="geometry" />
        </mxCell>
        <mxCell id="13BXsFd0YHhBjIUxRNbK-117" style="edgeStyle=orthogonalEdgeStyle;rounded=0;orthogonalLoop=1;jettySize=auto;html=1;exitX=0;exitY=0.5;exitDx=0;exitDy=0;entryX=1;entryY=0.5;entryDx=0;entryDy=0;fillColor=#f8cecc;strokeColor=#b85450;" edge="1" parent="13BXsFd0YHhBjIUxRNbK-89" source="13BXsFd0YHhBjIUxRNbK-97" target="13BXsFd0YHhBjIUxRNbK-110">
          <mxGeometry relative="1" as="geometry" />
        </mxCell>
        <mxCell id="13BXsFd0YHhBjIUxRNbK-97" value="" style="shape=orEllipse;perimeter=ellipsePerimeter;whiteSpace=wrap;html=1;backgroundOutline=1;" vertex="1" parent="13BXsFd0YHhBjIUxRNbK-89">
          <mxGeometry x="95" y="150" width="20" height="20" as="geometry" />
        </mxCell>
        <mxCell id="13BXsFd0YHhBjIUxRNbK-101" style="edgeStyle=orthogonalEdgeStyle;rounded=0;orthogonalLoop=1;jettySize=auto;html=1;exitX=0.5;exitY=1;exitDx=0;exitDy=0;entryX=1;entryY=0.5;entryDx=0;entryDy=0;fillColor=#e1d5e7;strokeColor=#9673a6;" edge="1" parent="13BXsFd0YHhBjIUxRNbK-89" source="13BXsFd0YHhBjIUxRNbK-98" target="13BXsFd0YHhBjIUxRNbK-97">
          <mxGeometry relative="1" as="geometry" />
        </mxCell>
        <mxCell id="13BXsFd0YHhBjIUxRNbK-139" style="edgeStyle=orthogonalEdgeStyle;rounded=0;orthogonalLoop=1;jettySize=auto;html=1;exitX=0.5;exitY=1;exitDx=0;exitDy=0;entryX=1;entryY=0.5;entryDx=0;entryDy=0;fillColor=#e1d5e7;strokeColor=#9673a6;" edge="1" parent="13BXsFd0YHhBjIUxRNbK-89" source="13BXsFd0YHhBjIUxRNbK-98" target="13BXsFd0YHhBjIUxRNbK-135">
          <mxGeometry relative="1" as="geometry" />
        </mxCell>
        <mxCell id="13BXsFd0YHhBjIUxRNbK-98" value="&lt;font style=&quot;font-size: 14px;&quot;&gt;Positional Encoding&lt;/font&gt;" style="rounded=0;whiteSpace=wrap;html=1;fillColor=#e1d5e7;strokeColor=#9673a6;" vertex="1" parent="13BXsFd0YHhBjIUxRNbK-89">
          <mxGeometry x="160" y="40" width="70" height="40" as="geometry" />
        </mxCell>
        <mxCell id="-kDFh1Iqd7QiOOdyhErm-1" style="edgeStyle=orthogonalEdgeStyle;rounded=0;orthogonalLoop=1;jettySize=auto;html=1;exitX=0;exitY=0.5;exitDx=0;exitDy=0;entryX=1;entryY=0.5;entryDx=0;entryDy=0;fillColor=#d5e8d4;strokeColor=#82b366;" edge="1" parent="13BXsFd0YHhBjIUxRNbK-89" source="13BXsFd0YHhBjIUxRNbK-107" target="13BXsFd0YHhBjIUxRNbK-133">
          <mxGeometry relative="1" as="geometry" />
        </mxCell>
        <mxCell id="-kDFh1Iqd7QiOOdyhErm-2" style="edgeStyle=orthogonalEdgeStyle;rounded=0;orthogonalLoop=1;jettySize=auto;html=1;exitX=0.5;exitY=0;exitDx=0;exitDy=0;entryX=1;entryY=0.5;entryDx=0;entryDy=0;fillColor=#d5e8d4;strokeColor=#82b366;" edge="1" parent="13BXsFd0YHhBjIUxRNbK-89" source="13BXsFd0YHhBjIUxRNbK-107" target="13BXsFd0YHhBjIUxRNbK-94">
          <mxGeometry relative="1" as="geometry" />
        </mxCell>
        <mxCell id="13BXsFd0YHhBjIUxRNbK-107" value="&lt;font style=&quot;font-size: 14px;&quot;&gt;Parameter Encoding&lt;/font&gt;" style="rounded=0;whiteSpace=wrap;html=1;fillColor=#d5e8d4;strokeColor=#82b366;" vertex="1" parent="13BXsFd0YHhBjIUxRNbK-89">
          <mxGeometry x="180" y="325" width="70" height="40" as="geometry" />
        </mxCell>
        <mxCell id="13BXsFd0YHhBjIUxRNbK-110" value="" style="shape=orEllipse;perimeter=ellipsePerimeter;whiteSpace=wrap;html=1;backgroundOutline=1;" vertex="1" parent="13BXsFd0YHhBjIUxRNbK-89">
          <mxGeometry x="50" y="150" width="20" height="20" as="geometry" />
        </mxCell>
        <mxCell id="13BXsFd0YHhBjIUxRNbK-118" style="edgeStyle=orthogonalEdgeStyle;rounded=0;orthogonalLoop=1;jettySize=auto;html=1;exitX=0.5;exitY=1;exitDx=0;exitDy=0;entryX=0.292;entryY=0.042;entryDx=0;entryDy=0;entryPerimeter=0;fillColor=#f8cecc;strokeColor=#b85450;" edge="1" parent="13BXsFd0YHhBjIUxRNbK-89" source="13BXsFd0YHhBjIUxRNbK-110" target="13BXsFd0YHhBjIUxRNbK-94">
          <mxGeometry relative="1" as="geometry" />
        </mxCell>
        <mxCell id="13BXsFd0YHhBjIUxRNbK-131" style="edgeStyle=orthogonalEdgeStyle;rounded=0;orthogonalLoop=1;jettySize=auto;html=1;exitX=0.5;exitY=1;exitDx=0;exitDy=0;entryX=0.5;entryY=0;entryDx=0;entryDy=0;fillColor=#f8cecc;strokeColor=#b85450;" edge="1" parent="13BXsFd0YHhBjIUxRNbK-89" source="13BXsFd0YHhBjIUxRNbK-132" target="13BXsFd0YHhBjIUxRNbK-135">
          <mxGeometry relative="1" as="geometry" />
        </mxCell>
        <mxCell id="13BXsFd0YHhBjIUxRNbK-132" value="&lt;font style=&quot;font-size: 17px;&quot;&gt;2D Convolution&lt;/font&gt;" style="rounded=0;whiteSpace=wrap;html=1;fillColor=#dae8fc;strokeColor=#6c8ebf;" vertex="1" parent="13BXsFd0YHhBjIUxRNbK-89">
          <mxGeometry x="25" y="240" width="120" height="30" as="geometry" />
        </mxCell>
        <mxCell id="13BXsFd0YHhBjIUxRNbK-147" style="edgeStyle=orthogonalEdgeStyle;rounded=0;orthogonalLoop=1;jettySize=auto;html=1;exitX=0.25;exitY=1;exitDx=0;exitDy=0;fillColor=#f8cecc;strokeColor=#b85450;" edge="1" parent="13BXsFd0YHhBjIUxRNbK-89" source="13BXsFd0YHhBjIUxRNbK-133" target="13BXsFd0YHhBjIUxRNbK-145">
          <mxGeometry relative="1" as="geometry">
            <Array as="points">
              <mxPoint x="73" y="360" />
            </Array>
          </mxGeometry>
        </mxCell>
        <mxCell id="13BXsFd0YHhBjIUxRNbK-133" value="&lt;font style=&quot;font-size: 19px;&quot;&gt;Transformer&lt;/font&gt;" style="rounded=0;whiteSpace=wrap;html=1;fillColor=#f8cecc;strokeColor=#b85450;" vertex="1" parent="13BXsFd0YHhBjIUxRNbK-89">
          <mxGeometry x="25" y="330" width="120" height="30" as="geometry" />
        </mxCell>
        <mxCell id="13BXsFd0YHhBjIUxRNbK-134" style="edgeStyle=orthogonalEdgeStyle;rounded=0;orthogonalLoop=1;jettySize=auto;html=1;exitX=0;exitY=0.5;exitDx=0;exitDy=0;entryX=1;entryY=0.5;entryDx=0;entryDy=0;fillColor=#f8cecc;strokeColor=#b85450;" edge="1" parent="13BXsFd0YHhBjIUxRNbK-89" source="13BXsFd0YHhBjIUxRNbK-135" target="13BXsFd0YHhBjIUxRNbK-136">
          <mxGeometry relative="1" as="geometry" />
        </mxCell>
        <mxCell id="13BXsFd0YHhBjIUxRNbK-135" value="" style="shape=orEllipse;perimeter=ellipsePerimeter;whiteSpace=wrap;html=1;backgroundOutline=1;" vertex="1" parent="13BXsFd0YHhBjIUxRNbK-89">
          <mxGeometry x="95" y="290" width="20" height="20" as="geometry" />
        </mxCell>
        <mxCell id="13BXsFd0YHhBjIUxRNbK-136" value="" style="shape=orEllipse;perimeter=ellipsePerimeter;whiteSpace=wrap;html=1;backgroundOutline=1;" vertex="1" parent="13BXsFd0YHhBjIUxRNbK-89">
          <mxGeometry x="50" y="290" width="20" height="20" as="geometry" />
        </mxCell>
        <mxCell id="13BXsFd0YHhBjIUxRNbK-137" style="edgeStyle=orthogonalEdgeStyle;rounded=0;orthogonalLoop=1;jettySize=auto;html=1;exitX=0.5;exitY=1;exitDx=0;exitDy=0;entryX=0.292;entryY=0.042;entryDx=0;entryDy=0;entryPerimeter=0;fillColor=#f8cecc;strokeColor=#b85450;" edge="1" parent="13BXsFd0YHhBjIUxRNbK-89" source="13BXsFd0YHhBjIUxRNbK-136" target="13BXsFd0YHhBjIUxRNbK-133">
          <mxGeometry relative="1" as="geometry" />
        </mxCell>
        <mxCell id="13BXsFd0YHhBjIUxRNbK-144" value="&lt;font style=&quot;font-size: 17px;&quot;&gt;Output&lt;/font&gt;&lt;div style=&quot;font-size: 17px; line-height: 90%;&quot;&gt;&lt;font style=&quot;font-size: 17px;&quot;&gt;Tensor&lt;/font&gt;&lt;/div&gt;" style="rounded=0;whiteSpace=wrap;html=1;" vertex="1" parent="13BXsFd0YHhBjIUxRNbK-89">
          <mxGeometry x="160" y="390" width="90" height="40" as="geometry" />
        </mxCell>
        <mxCell id="13BXsFd0YHhBjIUxRNbK-148" style="edgeStyle=orthogonalEdgeStyle;rounded=0;orthogonalLoop=1;jettySize=auto;html=1;exitX=1;exitY=0.5;exitDx=0;exitDy=0;entryX=0;entryY=0.5;entryDx=0;entryDy=0;fillColor=#f8cecc;strokeColor=#b85450;" edge="1" parent="13BXsFd0YHhBjIUxRNbK-89" source="13BXsFd0YHhBjIUxRNbK-145" target="13BXsFd0YHhBjIUxRNbK-144">
          <mxGeometry relative="1" as="geometry" />
        </mxCell>
        <mxCell id="13BXsFd0YHhBjIUxRNbK-145" value="&lt;div style=&quot;font-size: 15px;&quot;&gt;&lt;font style=&quot;font-size: 15px;&quot;&gt;&lt;i style=&quot;&quot;&gt;ResNet&lt;/i&gt;&lt;/font&gt;&lt;/div&gt;&lt;font style=&quot;font-size: 15px;&quot;&gt;DownSample&lt;/font&gt;" style="rounded=0;whiteSpace=wrap;html=1;fillColor=#dae8fc;strokeColor=#6c8ebf;" vertex="1" parent="13BXsFd0YHhBjIUxRNbK-89">
          <mxGeometry x="25" y="390" width="95" height="40" as="geometry" />
        </mxCell>
      </root>
    </mxGraphModel>
  </diagram>
</mxfile>
